<svg width="276" height="143" viewBox="0 0 276 143" fill="none" xmlns="http://www.w3.org/2000/svg">
<rect y="55" width="10" height="52" fill="#D9D9D9"/>
<rect width="10" height="52" transform="matrix(-1 0 0 1 276 56)" fill="#D9D9D9"/>
<rect x="16" y="39" width="10" height="82" fill="#D9D9D9"/>
<rect width="10" height="82" transform="matrix(-1 0 0 1 260 40)" fill="#D9D9D9"/>
<rect x="32" y="27" width="10" height="107" fill="#D9D9D9"/>
<rect width="10" height="107" transform="matrix(-1 0 0 1 244 28)" fill="#D9D9D9"/>
<rect x="50" y="72" width="169" height="9" fill="#D9D9D9"/>
<path d="M106.549 122.44C98.8688 122.44 92.1888 120.68 86.5088 117.16C80.9088 113.56 76.5888 108.44 73.5488 101.8C70.5088 95.08 68.9888 87.2 68.9888 78.16C68.9888 64.8 72.3088 54.32 78.9488 46.72C85.5888 39.12 95.3888 35.32 108.349 35.32C113.709 35.32 118.509 35.96 122.749 37.24C127.069 38.52 130.429 40.32 132.829 42.64C135.309 44.88 136.549 47.44 136.549 50.32C136.549 53.52 135.069 55.56 132.109 56.44C129.629 52.6 126.389 49.6 122.389 47.44C118.389 45.28 113.589 44.2 107.989 44.2C98.8688 44.2 91.9088 47.2 87.1088 53.2C82.3888 59.12 80.0288 67.44 80.0288 78.16C80.0288 89.04 82.3888 97.68 87.1088 104.08C91.8288 110.4 98.4288 113.56 106.909 113.56C114.349 113.56 120.109 111.08 124.189 106.12C128.269 101.16 130.309 94.12 130.309 85H108.229C107.829 83.96 107.629 82.96 107.629 82C107.629 80 108.229 78.48 109.429 77.44C110.709 76.4 112.389 75.88 114.469 75.88H135.589C137.509 75.88 138.789 76.28 139.429 77.08C140.069 77.88 140.389 79.48 140.389 81.88C140.389 94.92 137.469 104.96 131.629 112C125.789 118.96 117.429 122.44 106.549 122.44ZM179.092 122.44C173.652 122.44 168.732 121.76 164.332 120.4C160.012 118.96 156.612 117.04 154.132 114.64C151.652 112.24 150.412 109.6 150.412 106.72C150.412 103.6 151.892 101.6 154.852 100.72C160.452 109.28 168.652 113.56 179.452 113.56C185.212 113.56 189.692 112.36 192.892 109.96C196.092 107.56 197.692 104 197.692 99.28C197.692 96.16 196.932 93.64 195.412 91.72C193.972 89.8 191.932 88.2 189.292 86.92C186.732 85.64 182.892 84.12 177.772 82.36C172.252 80.44 167.772 78.52 164.332 76.6C160.972 74.68 158.292 72.2 156.292 69.16C154.292 66.04 153.292 62.12 153.292 57.4C153.292 50.2 155.572 44.72 160.132 40.96C164.772 37.2 171.412 35.32 180.052 35.32C187.332 35.32 193.452 36.56 198.412 39.04C203.372 41.52 205.852 44.88 205.852 49.12C205.852 52.32 204.372 54.36 201.412 55.24C199.012 51.48 196.052 48.72 192.532 46.96C189.092 45.12 184.812 44.2 179.692 44.2C168.652 44.2 163.132 48.28 163.132 56.44C163.132 59.48 163.852 61.96 165.292 63.88C166.812 65.8 168.732 67.36 171.052 68.56C173.372 69.76 176.652 71.16 180.892 72.76C187.612 75.24 192.692 77.4 196.132 79.24C199.652 81 202.452 83.44 204.532 86.56C206.692 89.6 207.772 93.64 207.772 98.68C207.772 107.08 205.052 113.16 199.612 116.92C194.252 120.6 187.412 122.44 179.092 122.44Z" fill="black"/>
</svg>
